<svg xmlns="http://www.w3.org/2000/svg" width="1000" height="630" viewBox="0 0 1000 630" role="img" aria-labelledby="title"><title id="title">Kajakverhuur: TK, TO, break-even en verticale winstafstand per dag</title><rect width="1000" height="630" fill="#F7FAFC"/><g font-family="Arial,DejaVu Sans,sans-serif"><text x="150" y="91" font-size="30pt" fill="#1F2937" text-anchor="start" font-weight="400">TK en TO (€ per dag)</text><line x1="150" y1="445" x2="770" y2="445" stroke="#D5DDE3" stroke-width="1.5" stroke-dasharray=""/><text x="131" y="458" font-size="30pt" fill="#1F2937" text-anchor="end" font-weight="400">0</text><line x1="150" y1="379" x2="770" y2="379" stroke="#D5DDE3" stroke-width="1.5" stroke-dasharray=""/><text x="131" y="392" font-size="30pt" fill="#1F2937" text-anchor="end" font-weight="400">10</text><line x1="150" y1="313" x2="770" y2="313" stroke="#D5DDE3" stroke-width="1.5" stroke-dasharray=""/><text x="131" y="326" font-size="30pt" fill="#1F2937" text-anchor="end" font-weight="400">20</text><line x1="150" y1="247" x2="770" y2="247" stroke="#D5DDE3" stroke-width="1.5" stroke-dasharray=""/><text x="131" y="260" font-size="30pt" fill="#1F2937" text-anchor="end" font-weight="400">30</text><line x1="150" y1="181" x2="770" y2="181" stroke="#D5DDE3" stroke-width="1.5" stroke-dasharray=""/><text x="131" y="194" font-size="30pt" fill="#1F2937" text-anchor="end" font-weight="400">40</text><line x1="150" y1="115" x2="770" y2="115" stroke="#D5DDE3" stroke-width="1.5" stroke-dasharray=""/><text x="131" y="128" font-size="30pt" fill="#1F2937" text-anchor="end" font-weight="400">50</text><line x1="150" y1="115" x2="150" y2="445" stroke="#1F2937" stroke-width="3.5" stroke-dasharray=""/><line x1="150" y1="445" x2="770" y2="445" stroke="#1F2937" stroke-width="3.5" stroke-dasharray=""/><line x1="150" y1="445" x2="150" y2="453" stroke="#1F2937" stroke-width="3" stroke-dasharray=""/><text x="150" y="497" font-size="30pt" fill="#1F2937" text-anchor="middle" font-weight="400">0</text><line x1="356.667" y1="445" x2="356.667" y2="453" stroke="#1F2937" stroke-width="3" stroke-dasharray=""/><text x="356.667" y="497" font-size="30pt" fill="#1F2937" text-anchor="middle" font-weight="400">2</text><line x1="563.333" y1="445" x2="563.333" y2="453" stroke="#1F2937" stroke-width="3" stroke-dasharray=""/><text x="563.333" y="497" font-size="30pt" fill="#1F2937" text-anchor="middle" font-weight="400">4</text><line x1="770" y1="445" x2="770" y2="453" stroke="#1F2937" stroke-width="3" stroke-dasharray=""/><text x="770" y="497" font-size="30pt" fill="#1F2937" text-anchor="middle" font-weight="400">6</text><text x="460" y="548" font-size="30pt" fill="#1F2937" text-anchor="middle" font-weight="400">Q (verhuringen per dag)</text><line x1="150" y1="313" x2="770" y2="273.4" stroke="#6F3611" stroke-width="9" stroke-dasharray="24 14"/><line x1="150" y1="313" x2="770" y2="273.4" stroke="#E67E22" stroke-width="2" stroke-dasharray="24 14"/><text x="184.1" y="288.822" font-size="30pt" fill="#6F3611" text-anchor="start" font-weight="700">TK</text><line x1="150" y1="445" x2="770" y2="167.8" stroke="#1A5276" stroke-width="7" stroke-dasharray=""/><text x="633.6" y="208.784" font-size="30pt" fill="#1A5276" text-anchor="start" font-weight="700">TO</text><circle cx="494.444" cy="291" r="8" fill="#1F2937"/><line x1="414.444" y1="241" x2="486.444" y2="284" stroke="#1F2937" stroke-width="2.5" stroke-dasharray=""/><text x="408.444" y="234" font-size="30pt" fill="#1F2937" text-anchor="end" font-weight="700">BE</text><text x="170" y="607" font-size="30pt" fill="#1F2937" text-anchor="start" font-weight="400">TO &lt; TK: verlies</text><text x="595" y="607" font-size="30pt" fill="#1F2937" text-anchor="start" font-weight="400">TO &gt; TK: winst</text><line x1="794" y1="167.8" x2="794" y2="273.4" stroke="#1F2937" stroke-width="4" stroke-dasharray=""/><line x1="780" y1="167.8" x2="808" y2="167.8" stroke="#1F2937" stroke-width="4" stroke-dasharray=""/><line x1="780" y1="273.4" x2="808" y2="273.4" stroke="#1F2937" stroke-width="4" stroke-dasharray=""/><text x="830" y="234.6" font-size="30pt" fill="#1F2937" text-anchor="start" font-weight="700">€ 16</text></g></svg>
