<svg xmlns="http://www.w3.org/2000/svg" width="720" height="255" viewBox="0 0 720 255"><defs><marker id="arrow" markerWidth="7" markerHeight="7" refX="6" refY="3.5" orient="auto-start-reverse"><path d="M0,0 L7,3.5 L0,7Z" fill="#183247"/></marker></defs><rect x="0" y="0" width="720" height="255" fill="#f7fafb" stroke="none" rx="7"/><text x="360.00000" y="26.00000" font-family="Lato, DejaVu Sans, sans-serif" font-size="20" fill="#17688f" text-anchor="middle" font-weight="700" >De voorkeur verandert; de prijs blijft € 6</text><line x1="82.00000" y1="185.00000" x2="82.00000" y2="189.00000" stroke="#183247" stroke-width="1" /><text x="82.00000" y="207.00000" font-family="Lato, DejaVu Sans, sans-serif" font-size="15" fill="#183247" text-anchor="middle" font-weight="400" >0</text><line x1="216.50000" y1="53.00000" x2="216.50000" y2="185.00000" stroke="#e2eaf0" stroke-width="0.8" /><line x1="216.50000" y1="185.00000" x2="216.50000" y2="189.00000" stroke="#183247" stroke-width="1" /><text x="216.50000" y="207.00000" font-family="Lato, DejaVu Sans, sans-serif" font-size="15" fill="#183247" text-anchor="middle" font-weight="400" >16</text><line x1="351.00000" y1="53.00000" x2="351.00000" y2="185.00000" stroke="#e2eaf0" stroke-width="0.8" /><line x1="351.00000" y1="185.00000" x2="351.00000" y2="189.00000" stroke="#183247" stroke-width="1" /><text x="351.00000" y="207.00000" font-family="Lato, DejaVu Sans, sans-serif" font-size="15" fill="#183247" text-anchor="middle" font-weight="400" >32</text><line x1="485.50000" y1="53.00000" x2="485.50000" y2="185.00000" stroke="#e2eaf0" stroke-width="0.8" /><line x1="485.50000" y1="185.00000" x2="485.50000" y2="189.00000" stroke="#183247" stroke-width="1" /><text x="485.50000" y="207.00000" font-family="Lato, DejaVu Sans, sans-serif" font-size="15" fill="#183247" text-anchor="middle" font-weight="400" >48</text><line x1="620.00000" y1="53.00000" x2="620.00000" y2="185.00000" stroke="#e2eaf0" stroke-width="0.8" /><line x1="620.00000" y1="185.00000" x2="620.00000" y2="189.00000" stroke="#183247" stroke-width="1" /><text x="620.00000" y="207.00000" font-family="Lato, DejaVu Sans, sans-serif" font-size="15" fill="#183247" text-anchor="middle" font-weight="400" >64</text><line x1="78.00000" y1="185.00000" x2="82.00000" y2="185.00000" stroke="#183247" stroke-width="1" /><line x1="82.00000" y1="152.00000" x2="620.00000" y2="152.00000" stroke="#e2eaf0" stroke-width="0.8" /><line x1="78.00000" y1="152.00000" x2="82.00000" y2="152.00000" stroke="#183247" stroke-width="1" /><text x="72.00000" y="157.00000" font-family="Lato, DejaVu Sans, sans-serif" font-size="15" fill="#183247" text-anchor="end" font-weight="400" >4</text><line x1="82.00000" y1="119.00000" x2="620.00000" y2="119.00000" stroke="#e2eaf0" stroke-width="0.8" /><line x1="78.00000" y1="119.00000" x2="82.00000" y2="119.00000" stroke="#183247" stroke-width="1" /><text x="72.00000" y="124.00000" font-family="Lato, DejaVu Sans, sans-serif" font-size="15" fill="#183247" text-anchor="end" font-weight="400" >8</text><line x1="82.00000" y1="86.00000" x2="620.00000" y2="86.00000" stroke="#e2eaf0" stroke-width="0.8" /><line x1="78.00000" y1="86.00000" x2="82.00000" y2="86.00000" stroke="#183247" stroke-width="1" /><text x="72.00000" y="91.00000" font-family="Lato, DejaVu Sans, sans-serif" font-size="15" fill="#183247" text-anchor="end" font-weight="400" >12</text><line x1="82.00000" y1="53.00000" x2="620.00000" y2="53.00000" stroke="#e2eaf0" stroke-width="0.8" /><line x1="78.00000" y1="53.00000" x2="82.00000" y2="53.00000" stroke="#183247" stroke-width="1" /><text x="72.00000" y="58.00000" font-family="Lato, DejaVu Sans, sans-serif" font-size="15" fill="#183247" text-anchor="end" font-weight="400" >16</text><line x1="82.00000" y1="185.00000" x2="632.00000" y2="185.00000" stroke="#183247" stroke-width="1.6" marker-end="url(#arrow)"/><line x1="82.00000" y1="185.00000" x2="82.00000" y2="44.00000" stroke="#183247" stroke-width="1.6" marker-end="url(#arrow)"/><text x="351.00000" y="239.00000" font-family="Lato, DejaVu Sans, sans-serif" font-size="17" fill="#183247" text-anchor="middle" font-weight="400" >Q (helmen per week)</text><text x="23.00000" y="119.00000" font-family="Lato, DejaVu Sans, sans-serif" font-size="17" fill="#183247" text-anchor="middle" font-weight="400" transform="rotate(-90 23 119.0)">P (€ per helm)</text><line x1="485.50000" y1="185.00000" x2="82.00000" y2="86.00000" stroke="#17688f" stroke-width="2.7" data-curve="V0"/><text x="497.50000" y="174.00000" font-family="Lato, DejaVu Sans, sans-serif" font-size="17" fill="#17688f" text-anchor="start" font-weight="700" >V₀</text><line x1="620.00000" y1="185.00000" x2="82.00000" y2="53.00000" stroke="#227064" stroke-width="2.7" data-curve="V1"/><text x="613.00000" y="174.00000" font-family="Lato, DejaVu Sans, sans-serif" font-size="17" fill="#227064" text-anchor="end" font-weight="700" >V₁</text><line x1="82.00000" y1="135.50000" x2="283.75000" y2="135.50000" stroke="#536777" stroke-width="1.25" stroke-dasharray="5 4" data-guide="h" data-for="pt0"/><line x1="283.75000" y1="135.50000" x2="283.75000" y2="185.00000" stroke="#536777" stroke-width="1.25" stroke-dasharray="5 4" data-guide="v" data-for="pt0"/><circle cx="283.75000" cy="135.50000" r="4" fill="#17688f" id="pt0" data-on="V0" data-q="24" data-p="6"/><text x="293.75000" y="124.50000" font-family="Lato, DejaVu Sans, sans-serif" font-size="17" fill="#17688f" text-anchor="start" font-weight="700" >A</text><line x1="82.00000" y1="135.50000" x2="418.25000" y2="135.50000" stroke="#536777" stroke-width="1.25" stroke-dasharray="5 4" data-guide="h" data-for="pt1"/><line x1="418.25000" y1="135.50000" x2="418.25000" y2="185.00000" stroke="#536777" stroke-width="1.25" stroke-dasharray="5 4" data-guide="v" data-for="pt1"/><circle cx="418.25000" cy="135.50000" r="4" fill="#227064" id="pt1" data-on="V1" data-q="40" data-p="6"/><text x="428.25000" y="124.50000" font-family="Lato, DejaVu Sans, sans-serif" font-size="17" fill="#227064" text-anchor="start" font-weight="700" >B</text></svg>