<svg xmlns="http://www.w3.org/2000/svg" width="720" height="340" viewBox="0 0 720 340"><defs><marker id="arr" markerWidth="7" markerHeight="7" refX="6" refY="3.5" orient="auto-start-reverse"><path d="M0,0 L7,3.5 L0,7Z" fill="#183247"/></marker></defs><rect x="0" y="0" width="720" height="340" rx="6" fill="#f7fafb"/><text x="360.00000" y="27.00000" font-family="Lato, DejaVu Sans, sans-serif" font-size="19" fill="#17688f" text-anchor="middle" font-weight="700" >Lees E en de twee plannen bij € 5</text><line x1="84.00000" y1="273.00000" x2="84.00000" y2="278.00000" stroke="#183247" stroke-width="1" /><text x="84.00000" y="296.00000" font-family="Lato, DejaVu Sans, sans-serif" font-size="15" fill="#183247" text-anchor="middle" font-weight="400" >0</text><line x1="175.66667" y1="273.00000" x2="175.66667" y2="51.00000" stroke="#e1e9ee" stroke-width="0.8" /><line x1="175.66667" y1="273.00000" x2="175.66667" y2="278.00000" stroke="#183247" stroke-width="1" /><text x="175.66667" y="296.00000" font-family="Lato, DejaVu Sans, sans-serif" font-size="15" fill="#183247" text-anchor="middle" font-weight="400" >10</text><line x1="267.33333" y1="273.00000" x2="267.33333" y2="51.00000" stroke="#e1e9ee" stroke-width="0.8" /><line x1="267.33333" y1="273.00000" x2="267.33333" y2="278.00000" stroke="#183247" stroke-width="1" /><text x="267.33333" y="296.00000" font-family="Lato, DejaVu Sans, sans-serif" font-size="15" fill="#183247" text-anchor="middle" font-weight="400" >20</text><line x1="359.00000" y1="273.00000" x2="359.00000" y2="51.00000" stroke="#e1e9ee" stroke-width="0.8" /><line x1="359.00000" y1="273.00000" x2="359.00000" y2="278.00000" stroke="#183247" stroke-width="1" /><text x="359.00000" y="296.00000" font-family="Lato, DejaVu Sans, sans-serif" font-size="15" fill="#183247" text-anchor="middle" font-weight="400" >30</text><line x1="450.66667" y1="273.00000" x2="450.66667" y2="51.00000" stroke="#e1e9ee" stroke-width="0.8" /><line x1="450.66667" y1="273.00000" x2="450.66667" y2="278.00000" stroke="#183247" stroke-width="1" /><text x="450.66667" y="296.00000" font-family="Lato, DejaVu Sans, sans-serif" font-size="15" fill="#183247" text-anchor="middle" font-weight="400" >40</text><line x1="542.33333" y1="273.00000" x2="542.33333" y2="51.00000" stroke="#e1e9ee" stroke-width="0.8" /><line x1="542.33333" y1="273.00000" x2="542.33333" y2="278.00000" stroke="#183247" stroke-width="1" /><text x="542.33333" y="296.00000" font-family="Lato, DejaVu Sans, sans-serif" font-size="15" fill="#183247" text-anchor="middle" font-weight="400" >50</text><line x1="634.00000" y1="273.00000" x2="634.00000" y2="51.00000" stroke="#e1e9ee" stroke-width="0.8" /><line x1="634.00000" y1="273.00000" x2="634.00000" y2="278.00000" stroke="#183247" stroke-width="1" /><text x="634.00000" y="296.00000" font-family="Lato, DejaVu Sans, sans-serif" font-size="15" fill="#183247" text-anchor="middle" font-weight="400" >60</text><line x1="80.00000" y1="273.00000" x2="84.00000" y2="273.00000" stroke="#183247" stroke-width="1" /><line x1="84.00000" y1="236.00000" x2="634.00000" y2="236.00000" stroke="#e1e9ee" stroke-width="0.8" /><text x="73.00000" y="241.00000" font-family="Lato, DejaVu Sans, sans-serif" font-size="15" fill="#183247" text-anchor="end" font-weight="400" >2</text><line x1="80.00000" y1="236.00000" x2="84.00000" y2="236.00000" stroke="#183247" stroke-width="1" /><line x1="84.00000" y1="199.00000" x2="634.00000" y2="199.00000" stroke="#e1e9ee" stroke-width="0.8" /><text x="73.00000" y="204.00000" font-family="Lato, DejaVu Sans, sans-serif" font-size="15" fill="#183247" text-anchor="end" font-weight="400" >4</text><line x1="80.00000" y1="199.00000" x2="84.00000" y2="199.00000" stroke="#183247" stroke-width="1" /><line x1="84.00000" y1="162.00000" x2="634.00000" y2="162.00000" stroke="#e1e9ee" stroke-width="0.8" /><text x="73.00000" y="167.00000" font-family="Lato, DejaVu Sans, sans-serif" font-size="15" fill="#183247" text-anchor="end" font-weight="400" >6</text><line x1="80.00000" y1="162.00000" x2="84.00000" y2="162.00000" stroke="#183247" stroke-width="1" /><line x1="84.00000" y1="125.00000" x2="634.00000" y2="125.00000" stroke="#e1e9ee" stroke-width="0.8" /><text x="73.00000" y="130.00000" font-family="Lato, DejaVu Sans, sans-serif" font-size="15" fill="#183247" text-anchor="end" font-weight="400" >8</text><line x1="80.00000" y1="125.00000" x2="84.00000" y2="125.00000" stroke="#183247" stroke-width="1" /><line x1="84.00000" y1="88.00000" x2="634.00000" y2="88.00000" stroke="#e1e9ee" stroke-width="0.8" /><text x="73.00000" y="93.00000" font-family="Lato, DejaVu Sans, sans-serif" font-size="15" fill="#183247" text-anchor="end" font-weight="400" >10</text><line x1="80.00000" y1="88.00000" x2="84.00000" y2="88.00000" stroke="#183247" stroke-width="1" /><line x1="84.00000" y1="51.00000" x2="634.00000" y2="51.00000" stroke="#e1e9ee" stroke-width="0.8" /><text x="73.00000" y="56.00000" font-family="Lato, DejaVu Sans, sans-serif" font-size="15" fill="#183247" text-anchor="end" font-weight="400" >12</text><line x1="80.00000" y1="51.00000" x2="84.00000" y2="51.00000" stroke="#183247" stroke-width="1" /><line x1="84.00000" y1="273.00000" x2="646.00000" y2="273.00000" stroke="#183247" stroke-width="1.6" marker-end="url(#arr)"/><line x1="84.00000" y1="273.00000" x2="84.00000" y2="42.00000" stroke="#183247" stroke-width="1.6" marker-end="url(#arr)"/><text x="359.00000" y="328.00000" font-family="Lato, DejaVu Sans, sans-serif" font-size="16" fill="#183247" text-anchor="middle" font-weight="400" >Q (lunchboxen per week)</text><text x="22.00000" y="162.00000" font-family="Lato, DejaVu Sans, sans-serif" font-size="16" fill="#183247" text-anchor="middle" font-weight="400" transform="rotate(-90 22 162.0)">P (€ per lunchbox)</text><line x1="84.00000" y1="143.50000" x2="313.16667" y2="143.50000" stroke="#536777" stroke-width="1.2" stroke-dasharray="5 4" data-guide="h0"/><line x1="313.16667" y1="143.50000" x2="313.16667" y2="273.00000" stroke="#536777" stroke-width="1.2" stroke-dasharray="5 4" data-guide="v0"/><line x1="84.00000" y1="180.50000" x2="404.83333" y2="180.50000" stroke="#536777" stroke-width="1.2" stroke-dasharray="5 4" data-guide="h1"/><line x1="404.83333" y1="180.50000" x2="404.83333" y2="273.00000" stroke="#536777" stroke-width="1.2" stroke-dasharray="5 4" data-guide="v1"/><line x1="84.00000" y1="180.50000" x2="221.50000" y2="180.50000" stroke="#536777" stroke-width="1.2" stroke-dasharray="5 4" data-guide="h2"/><line x1="221.50000" y1="180.50000" x2="221.50000" y2="273.00000" stroke="#536777" stroke-width="1.2" stroke-dasharray="5 4" data-guide="v2"/><line x1="634.00000" y1="273.00000" x2="84.00000" y2="51.00000" stroke="#17688f" stroke-width="2.7" data-curve="V"/><text x="587.00000" y="244.80000" font-family="Lato, DejaVu Sans, sans-serif" font-size="17" fill="#17688f" text-anchor="start" font-weight="700" >V</text><line x1="84.00000" y1="236.00000" x2="542.33333" y2="51.00000" stroke="#227064" stroke-width="2.7" data-curve="A"/><text x="509.08333" y="59.65000" font-family="Lato, DejaVu Sans, sans-serif" font-size="17" fill="#227064" text-anchor="start" font-weight="700" >A</text><circle cx="313.16667" cy="143.50000" r="4" fill="#183247" data-point="0"/><text x="313.16667" y="130.50000" font-family="Lato, DejaVu Sans, sans-serif" font-size="17" fill="#183247" text-anchor="middle" font-weight="700" >E</text><circle cx="404.83333" cy="180.50000" r="4" fill="#183247" data-point="1"/><text x="419.83333" y="172.50000" font-family="Lato, DejaVu Sans, sans-serif" font-size="17" fill="#183247" text-anchor="middle" font-weight="700" >R</text><circle cx="221.50000" cy="180.50000" r="4" fill="#183247" data-point="2"/><text x="206.50000" y="172.50000" font-family="Lato, DejaVu Sans, sans-serif" font-size="17" fill="#183247" text-anchor="middle" font-weight="700" >S</text></svg>