<svg xmlns="http://www.w3.org/2000/svg" width="720" height="280" viewBox="0 0 720 280"><defs><marker id="arr" markerWidth="7" markerHeight="7" refX="6" refY="3.5" orient="auto-start-reverse"><path d="M0,0 L7,3.5 L0,7Z" fill="#183247"/></marker></defs><rect x="0" y="0" width="720" height="280" rx="6" fill="#f7fafb"/><text x="360.00000" y="27.00000" font-family="Lato, DejaVu Sans, sans-serif" font-size="19" fill="#17688f" text-anchor="middle" font-weight="700" >Oplaadkabels: V verschuift; op A vindt een beweging plaats</text><line x1="84.00000" y1="213.00000" x2="84.00000" y2="218.00000" stroke="#183247" stroke-width="1" /><text x="84.00000" y="236.00000" font-family="Lato, DejaVu Sans, sans-serif" font-size="15" fill="#183247" text-anchor="middle" font-weight="400" >0</text><line x1="175.66667" y1="213.00000" x2="175.66667" y2="51.00000" stroke="#e1e9ee" stroke-width="0.8" /><line x1="175.66667" y1="213.00000" x2="175.66667" y2="218.00000" stroke="#183247" stroke-width="1" /><text x="175.66667" y="236.00000" font-family="Lato, DejaVu Sans, sans-serif" font-size="15" fill="#183247" text-anchor="middle" font-weight="400" >20</text><line x1="267.33333" y1="213.00000" x2="267.33333" y2="51.00000" stroke="#e1e9ee" stroke-width="0.8" /><line x1="267.33333" y1="213.00000" x2="267.33333" y2="218.00000" stroke="#183247" stroke-width="1" /><text x="267.33333" y="236.00000" font-family="Lato, DejaVu Sans, sans-serif" font-size="15" fill="#183247" text-anchor="middle" font-weight="400" >40</text><line x1="359.00000" y1="213.00000" x2="359.00000" y2="51.00000" stroke="#e1e9ee" stroke-width="0.8" /><line x1="359.00000" y1="213.00000" x2="359.00000" y2="218.00000" stroke="#183247" stroke-width="1" /><text x="359.00000" y="236.00000" font-family="Lato, DejaVu Sans, sans-serif" font-size="15" fill="#183247" text-anchor="middle" font-weight="400" >60</text><line x1="450.66667" y1="213.00000" x2="450.66667" y2="51.00000" stroke="#e1e9ee" stroke-width="0.8" /><line x1="450.66667" y1="213.00000" x2="450.66667" y2="218.00000" stroke="#183247" stroke-width="1" /><text x="450.66667" y="236.00000" font-family="Lato, DejaVu Sans, sans-serif" font-size="15" fill="#183247" text-anchor="middle" font-weight="400" >80</text><line x1="542.33333" y1="213.00000" x2="542.33333" y2="51.00000" stroke="#e1e9ee" stroke-width="0.8" /><line x1="542.33333" y1="213.00000" x2="542.33333" y2="218.00000" stroke="#183247" stroke-width="1" /><text x="542.33333" y="236.00000" font-family="Lato, DejaVu Sans, sans-serif" font-size="15" fill="#183247" text-anchor="middle" font-weight="400" >100</text><line x1="634.00000" y1="213.00000" x2="634.00000" y2="51.00000" stroke="#e1e9ee" stroke-width="0.8" /><line x1="634.00000" y1="213.00000" x2="634.00000" y2="218.00000" stroke="#183247" stroke-width="1" /><text x="634.00000" y="236.00000" font-family="Lato, DejaVu Sans, sans-serif" font-size="15" fill="#183247" text-anchor="middle" font-weight="400" >120</text><line x1="80.00000" y1="213.00000" x2="84.00000" y2="213.00000" stroke="#183247" stroke-width="1" /><line x1="84.00000" y1="186.00000" x2="634.00000" y2="186.00000" stroke="#e1e9ee" stroke-width="0.8" /><text x="73.00000" y="191.00000" font-family="Lato, DejaVu Sans, sans-serif" font-size="15" fill="#183247" text-anchor="end" font-weight="400" >4</text><line x1="80.00000" y1="186.00000" x2="84.00000" y2="186.00000" stroke="#183247" stroke-width="1" /><line x1="84.00000" y1="159.00000" x2="634.00000" y2="159.00000" stroke="#e1e9ee" stroke-width="0.8" /><text x="73.00000" y="164.00000" font-family="Lato, DejaVu Sans, sans-serif" font-size="15" fill="#183247" text-anchor="end" font-weight="400" >8</text><line x1="80.00000" y1="159.00000" x2="84.00000" y2="159.00000" stroke="#183247" stroke-width="1" /><line x1="84.00000" y1="132.00000" x2="634.00000" y2="132.00000" stroke="#e1e9ee" stroke-width="0.8" /><text x="73.00000" y="137.00000" font-family="Lato, DejaVu Sans, sans-serif" font-size="15" fill="#183247" text-anchor="end" font-weight="400" >12</text><line x1="80.00000" y1="132.00000" x2="84.00000" y2="132.00000" stroke="#183247" stroke-width="1" /><line x1="84.00000" y1="105.00000" x2="634.00000" y2="105.00000" stroke="#e1e9ee" stroke-width="0.8" /><text x="73.00000" y="110.00000" font-family="Lato, DejaVu Sans, sans-serif" font-size="15" fill="#183247" text-anchor="end" font-weight="400" >16</text><line x1="80.00000" y1="105.00000" x2="84.00000" y2="105.00000" stroke="#183247" stroke-width="1" /><line x1="84.00000" y1="78.00000" x2="634.00000" y2="78.00000" stroke="#e1e9ee" stroke-width="0.8" /><text x="73.00000" y="83.00000" font-family="Lato, DejaVu Sans, sans-serif" font-size="15" fill="#183247" text-anchor="end" font-weight="400" >20</text><line x1="80.00000" y1="78.00000" x2="84.00000" y2="78.00000" stroke="#183247" stroke-width="1" /><line x1="84.00000" y1="51.00000" x2="634.00000" y2="51.00000" stroke="#e1e9ee" stroke-width="0.8" /><text x="73.00000" y="56.00000" font-family="Lato, DejaVu Sans, sans-serif" font-size="15" fill="#183247" text-anchor="end" font-weight="400" >24</text><line x1="80.00000" y1="51.00000" x2="84.00000" y2="51.00000" stroke="#183247" stroke-width="1" /><line x1="84.00000" y1="213.00000" x2="646.00000" y2="213.00000" stroke="#183247" stroke-width="1.6" marker-end="url(#arr)"/><line x1="84.00000" y1="213.00000" x2="84.00000" y2="42.00000" stroke="#183247" stroke-width="1.6" marker-end="url(#arr)"/><text x="359.00000" y="268.00000" font-family="Lato, DejaVu Sans, sans-serif" font-size="16" fill="#183247" text-anchor="middle" font-weight="400" >Q (kabels per week)</text><text x="22.00000" y="132.00000" font-family="Lato, DejaVu Sans, sans-serif" font-size="16" fill="#183247" text-anchor="middle" font-weight="400" transform="rotate(-90 22 132.0)">P (€ per kabel)</text><line x1="84.00000" y1="132.00000" x2="267.33333" y2="132.00000" stroke="#536777" stroke-width="1.2" stroke-dasharray="5 4" data-guide="h0"/><line x1="267.33333" y1="132.00000" x2="267.33333" y2="213.00000" stroke="#536777" stroke-width="1.2" stroke-dasharray="5 4" data-guide="v0"/><line x1="84.00000" y1="118.50000" x2="313.16667" y2="118.50000" stroke="#536777" stroke-width="1.2" stroke-dasharray="5 4" data-guide="h1"/><line x1="313.16667" y1="118.50000" x2="313.16667" y2="213.00000" stroke="#536777" stroke-width="1.2" stroke-dasharray="5 4" data-guide="v1"/><line x1="542.33333" y1="213.00000" x2="84.00000" y2="78.00000" stroke="#17688f" stroke-width="2.7" data-curve="V0"/><text x="504.50000" y="193.50000" font-family="Lato, DejaVu Sans, sans-serif" font-size="17" fill="#17688f" text-anchor="start" font-weight="700" >V₀</text><line x1="84.00000" y1="186.00000" x2="542.33333" y2="51.00000" stroke="#227064" stroke-width="2.7" data-curve="A"/><text x="509.08333" y="55.15000" font-family="Lato, DejaVu Sans, sans-serif" font-size="17" fill="#227064" text-anchor="start" font-weight="700" >A</text><line x1="634.00000" y1="213.00000" x2="84.00000" y2="51.00000" stroke="#704b8b" stroke-width="2.7" stroke-dasharray="7 4" data-curve="V1"/><text x="587.00000" y="190.80000" font-family="Lato, DejaVu Sans, sans-serif" font-size="17" fill="#704b8b" text-anchor="start" font-weight="700" >V₁</text><circle cx="267.33333" cy="132.00000" r="4" fill="#183247" data-point="0"/><text x="247.33333" y="123.00000" font-family="Lato, DejaVu Sans, sans-serif" font-size="17" fill="#183247" text-anchor="middle" font-weight="700" >E₀</text><circle cx="313.16667" cy="118.50000" r="4" fill="#183247" data-point="1"/><text x="333.16667" y="109.50000" font-family="Lato, DejaVu Sans, sans-serif" font-size="17" fill="#183247" text-anchor="middle" font-weight="700" >E₁</text><line x1="281.08333" y1="132.00000" x2="345.25000" y2="132.00000" stroke="#183247" stroke-width="1.6" marker-end="url(#arr)"/><line x1="276.50000" y1="129.30000" x2="304.00000" y2="121.20000" stroke="#183247" stroke-width="1.6" marker-end="url(#arr)"/></svg>