<svg xmlns="http://www.w3.org/2000/svg" width="720" height="300" viewBox="0 0 720 300" role="img"><title>Klimhal: lees eerst het gearceerde gebied</title><rect width="720" height="300" fill="white"/><text x="360.000" y="24.000" font-family="Lato, DejaVu Sans, sans-serif" font-size="20" fill="#183247" text-anchor="middle" font-weight="700" >Klimhal: lees eerst het gearceerde gebied</text><line x1="87.000" y1="48.000" x2="87.000" y2="212.000" stroke="#dce4e9" stroke-width="1"/><text x="87.000" y="236.000" font-family="Lato, DejaVu Sans, sans-serif" font-size="17" fill="#183247" text-anchor="middle" font-weight="400" >0</text><line x1="184.500" y1="48.000" x2="184.500" y2="212.000" stroke="#dce4e9" stroke-width="1"/><text x="184.500" y="236.000" font-family="Lato, DejaVu Sans, sans-serif" font-size="17" fill="#183247" text-anchor="middle" font-weight="400" >10</text><line x1="282.000" y1="48.000" x2="282.000" y2="212.000" stroke="#dce4e9" stroke-width="1"/><text x="282.000" y="236.000" font-family="Lato, DejaVu Sans, sans-serif" font-size="17" fill="#183247" text-anchor="middle" font-weight="400" >20</text><line x1="379.500" y1="48.000" x2="379.500" y2="212.000" stroke="#dce4e9" stroke-width="1"/><text x="379.500" y="236.000" font-family="Lato, DejaVu Sans, sans-serif" font-size="17" fill="#183247" text-anchor="middle" font-weight="400" >30</text><line x1="477.000" y1="48.000" x2="477.000" y2="212.000" stroke="#dce4e9" stroke-width="1"/><text x="477.000" y="236.000" font-family="Lato, DejaVu Sans, sans-serif" font-size="17" fill="#183247" text-anchor="middle" font-weight="400" >40</text><line x1="574.500" y1="48.000" x2="574.500" y2="212.000" stroke="#dce4e9" stroke-width="1"/><text x="574.500" y="236.000" font-family="Lato, DejaVu Sans, sans-serif" font-size="17" fill="#183247" text-anchor="middle" font-weight="400" >50</text><line x1="672.000" y1="48.000" x2="672.000" y2="212.000" stroke="#dce4e9" stroke-width="1"/><text x="672.000" y="236.000" font-family="Lato, DejaVu Sans, sans-serif" font-size="17" fill="#183247" text-anchor="middle" font-weight="400" >60</text><line x1="87.000" y1="212.000" x2="672.000" y2="212.000" stroke="#dce4e9" stroke-width="1"/><text x="75.000" y="218.000" font-family="Lato, DejaVu Sans, sans-serif" font-size="17" fill="#183247" text-anchor="end" font-weight="400" >0</text><line x1="87.000" y1="184.667" x2="672.000" y2="184.667" stroke="#dce4e9" stroke-width="1"/><text x="75.000" y="190.667" font-family="Lato, DejaVu Sans, sans-serif" font-size="17" fill="#183247" text-anchor="end" font-weight="400" >4</text><line x1="87.000" y1="157.333" x2="672.000" y2="157.333" stroke="#dce4e9" stroke-width="1"/><text x="75.000" y="163.333" font-family="Lato, DejaVu Sans, sans-serif" font-size="17" fill="#183247" text-anchor="end" font-weight="400" >8</text><line x1="87.000" y1="130.000" x2="672.000" y2="130.000" stroke="#dce4e9" stroke-width="1"/><text x="75.000" y="136.000" font-family="Lato, DejaVu Sans, sans-serif" font-size="17" fill="#183247" text-anchor="end" font-weight="400" >12</text><line x1="87.000" y1="102.667" x2="672.000" y2="102.667" stroke="#dce4e9" stroke-width="1"/><text x="75.000" y="108.667" font-family="Lato, DejaVu Sans, sans-serif" font-size="17" fill="#183247" text-anchor="end" font-weight="400" >16</text><line x1="87.000" y1="75.333" x2="672.000" y2="75.333" stroke="#dce4e9" stroke-width="1"/><text x="75.000" y="81.333" font-family="Lato, DejaVu Sans, sans-serif" font-size="17" fill="#183247" text-anchor="end" font-weight="400" >20</text><line x1="87.000" y1="48.000" x2="672.000" y2="48.000" stroke="#dce4e9" stroke-width="1"/><text x="75.000" y="54.000" font-family="Lato, DejaVu Sans, sans-serif" font-size="17" fill="#183247" text-anchor="end" font-weight="400" >24</text><polygon points="87.000,157.333 87.000,48.000 477.000,157.333 477.000,157.333" fill="#dcecf4" stroke="#17688f" stroke-width="0.6"/><line x1="87.000" y1="48.000" x2="672.000" y2="212.000" stroke="#17688f" stroke-width="3"/><text x="613.500" y="183.600" font-family="Lato, DejaVu Sans, sans-serif" font-size="20" fill="#17688f" text-anchor="end" font-weight="700" >V</text><line x1="87.000" y1="157.333" x2="672.000" y2="157.333" stroke="#183247" stroke-width="1.8" stroke-dasharray="8 5"/><line x1="477.000" y1="157.333" x2="477.000" y2="212.000" stroke="#536777" stroke-width="1.7" stroke-dasharray="5 4"/><text x="477.000" y="259.000" font-family="Lato, DejaVu Sans, sans-serif" font-size="17" fill="#536777" text-anchor="middle" font-weight="700" >Q = 40</text><rect x="192.0" y="103.88888888888889" width="50" height="29" rx="2" fill="#dcecf4" stroke="none"/><text x="217.000" y="126.889" font-family="Lato, DejaVu Sans, sans-serif" font-size="20" fill="#17688f" text-anchor="middle" font-weight="700" >CS</text><rect x="586.0" y="144.33333333333334" width="83" height="25" rx="3" fill="white" stroke="none"/><text x="664.000" y="163.333" font-family="Lato, DejaVu Sans, sans-serif" font-size="17" fill="#183247" text-anchor="end" font-weight="700" >P = 8</text><line x1="87.000" y1="46.000" x2="87.000" y2="212.000" stroke="#183247" stroke-width="2"/><line x1="87.000" y1="212.000" x2="676.000" y2="212.000" stroke="#183247" stroke-width="2"/><text x="24.000" y="130.000" font-family="Lato, DejaVu Sans, sans-serif" font-size="18" fill="#183247" text-anchor="middle" font-weight="400" transform="rotate(-90 24 130.0)">P (€ per kaartje)</text><text x="380.000" y="291.000" font-family="Lato, DejaVu Sans, sans-serif" font-size="18" fill="#183247" text-anchor="middle" font-weight="400" >Q (kaartjes)</text></svg>